/* XPM */
static char *_5859cfb680e45e2a6debc04206c7dbeQUN6Dw2iyQVucwUg[] = {
/* columns rows colors chars-per-pixel */
"64 64 240 2 ",
"   c #060304",
".  c #0A0506",
"X  c #0E0807",
"o  c #0B0609",
"O  c #0D090B",
"+  c #160708",
"@  c #130C0D",
"#  c #1B0C0C",
"$  c #17110D",
"%  c #190E11",
"&  c #161111",
"*  c #1B1213",
"=  c #1D1719",
"-  c #230C0D",
";  c #290B0D",
":  c #300F0F",
">  c #28110E",
",  c #240F11",
"<  c #350B12",
"1  c #231111",
"2  c #2C1413",
"3  c #241816",
"4  c #2D1A15",
"5  c #231B1B",
"6  c #2C1C1A",
"7  c #331513",
"8  c #341A15",
"9  c #3A1B16",
"0  c #3A1519",
"q  c #341C1A",
"w  c #3C1E1A",
"e  c #2B211D",
"r  c #35211B",
"t  c #3D221C",
"y  c #1B1424",
"u  c #2B1D29",
"i  c #2C2427",
"p  c #3C2422",
"a  c #372926",
"s  c #342B31",
"d  c #362B38",
"f  c #3C3337",
"g  c #411E1C",
"h  c #42231C",
"j  c #49261F",
"k  c #451D21",
"l  c #442A24",
"z  c #472A25",
"x  c #512D2D",
"c  c #49322D",
"v  c #483A36",
"b  c #573936",
"n  c #4C4138",
"m  c #51453C",
"M  c #58463B",
"N  c #63473B",
"B  c #211F40",
"V  c #312E4C",
"C  c #3A356A",
"Z  c #2B3371",
"A  c #373B79",
"S  c #562D4F",
"D  c #453847",
"F  c #543445",
"G  c #473A59",
"H  c #583A56",
"J  c #623C5C",
"K  c #443C69",
"L  c #533C6B",
"P  c #4B4549",
"I  c #554A42",
"U  c #574C49",
"Y  c #5C524E",
"T  c #4A4258",
"R  c #56475C",
"E  c #5D5757",
"W  c #664B4B",
"Q  c #67554D",
"!  c #645B54",
"~  c #675B57",
"^  c #655D5B",
"/  c #6B625C",
"(  c #74635C",
")  c #574964",
"_  c #584A62",
"`  c #574A6C",
"'  c #594B6C",
"]  c #494777",
"[  c #524972",
"{  c #5A4C73",
"}  c #544A78",
"|  c #5B4D7A",
" . c #655675",
".. c #695272",
"X. c #6B6564",
"o. c #6C6768",
"O. c #766A66",
"+. c #736C6C",
"@. c #776E72",
"#. c #7B7576",
"$. c #87716D",
"%. c #857B78",
"&. c #8E837C",
"*. c #103299",
"=. c #353B87",
"-. c #283892",
";. c #0B32A2",
":. c #0833AB",
">. c #0333B1",
",. c #0C36B1",
"<. c #173AB2",
"1. c #2539AA",
"2. c #2A3BAA",
"3. c #343EAC",
"4. c #293CB0",
"5. c #473E9B",
"6. c #3C458E",
"7. c #3A419A",
"8. c #1F43B6",
"9. c #2A41A9",
"0. c #3642AE",
"q. c #3C43AD",
"w. c #2A4CB9",
"e. c #384DB2",
"r. c #3752B6",
"t. c #4B488A",
"y. c #5D4F82",
"u. c #594C87",
"i. c #5D4F84",
"p. c #5C5083",
"a. c #565188",
"s. c #5D518A",
"d. c #5E518D",
"f. c #494996",
"g. c #574F9B",
"h. c #4D5295",
"j. c #5D5293",
"k. c #56529D",
"l. c #5B519B",
"z. c #665A89",
"x. c #705688",
"c. c #685D97",
"v. c #695F99",
"b. c #6A619E",
"n. c #796891",
"m. c #4D4BA5",
"M. c #4345AB",
"N. c #4747A8",
"B. c #4548AC",
"V. c #4B4AA9",
"C. c #534EA3",
"Z. c #4C52A9",
"A. c #5650A0",
"S. c #5853A5",
"D. c #454CB1",
"F. c #495CB5",
"G. c #445EB9",
"H. c #575BB7",
"J. c #605DAB",
"K. c #5A69B9",
"L. c #6962A2",
"P. c #6561AB",
"I. c #6E6CAD",
"U. c #7469AB",
"Y. c #716DAB",
"T. c #6867B3",
"R. c #6F70B4",
"E. c #7676B7",
"W. c #5B72C8",
"Q. c #6B76C5",
"!. c #6670CB",
"~. c #657CCD",
"^. c #777CC7",
"/. c #8A768A",
"(. c #7E81C4",
"). c #978A85",
"_. c #96908C",
"`. c #A79B97",
"'. c #ABA29C",
"]. c #8484B9",
"[. c #9393BE",
"{. c #B4A9A8",
"}. c #B0AAAD",
"|. c #B7B1AC",
" X c #BAB3AE",
".X c #BCB5B2",
"XX c #BBB6B8",
"oX c #C2B9B6",
"OX c #C5BEBA",
"+X c #C6C1BC",
"@X c #C9C4BF",
"#X c #8485C4",
"$X c #8F96CA",
"%X c #A797C0",
"&X c #9DA1D1",
"*X c #A7A6CA",
"=X c #B6B7D0",
"-X c #A5B0E6",
";X c #C1BBC0",
":X c #C1BEC9",
">X c #C7C4C9",
",X c #D2CDC9",
"<X c #D5D1CD",
"1X c #DAD3CE",
"2X c #C7C5D4",
"3X c #CECDDC",
"4X c #D0CED5",
"5X c #DAD6D2",
"6X c #DDDAD6",
"7X c #D6D4D8",
"8X c #DEDBDA",
"9X c #E0DAD7",
"0X c #E1DEDA",
"qX c #E4E1DE",
"wX c #C9CDE6",
"eX c #D3D4E3",
"rX c #DCDBE3",
"tX c #D5D7E9",
"yX c #DBDCEB",
"uX c #D9DDF2",
"iX c #E0DDE5",
"pX c #DDE1EE",
"aX c #DDE1F4",
"sX c #E6E4E1",
"dX c #E9E6E4",
"fX c #EAE9E6",
"gX c #E3E4EB",
"hX c #EDECE9",
"jX c #F0EFEC",
"kX c #F4F2EE",
"lX c #F9F4EC",
"zX c #F9F9ED",
"xX c #E1E5F1",
"cX c #E6EAF3",
"vX c #EBECF4",
"bX c #F5F5F2",
"nX c #F9F6F3",
"mX c #FAF9F6",
"MX c #F5F7FA",
"NX c #FDFEFC",
/* pixels */
"v v v v v v n n n n n m m m m m m m m m m m m I I I I I I I m m I I I m I U U U Y Y Q ! ! ! ! ! ! / / / / / / ! ! ! Y U I I m m ",
"Y Y Y Y Y Y ! ! ! ! ! ! ! ! ~ ! ^ ^ ^ ^ ^ ^ ^ ^ ^ ^ ^ ^ ^ ^ ^ ^ ^ ^ ^ ^ ^ X.X.X.X.X.X.o.+.+.+.+.+.@.#.#.#.#.@.@.+.+.o.X.^ ^ ^ ! ",
"R R R R R R R R R R R R R _ _ _ _ _ _ _ _ _ _ _ _ _ _ _ _ _ _ _ _ _ R R _ _ _ _ _ ) ) ) ) ' ' ' ' ' { { { { ' ' ' ' ) ) ) _ _ _ ",
") ) ) ) ) ) ` ` ` ` ` ` ` ` ` ` ` ` ` ` ` ` ` ` ` ` ` ` ` ` ` ` ` ` ` ` ` ` ` ` ` ` ` ` ` { { { | | | | | | | { { { { { { { { { ",
"{ { { { { { { { | | | | | | | | | | | | | | | | | | | | | | | | | | { { { { { | | | | | | | | p.p.p.p.p.y.y.| | | | | | | p.p.p.",
"| | | | | | | | | | y.| y.y.y.y.p.p.p.y.y.y.y.y.p.p.y.y.p.i.i.y.y.y.y.p.p.p.p.y.p.p.p.p.p.s.s.a.s.s.s.s.s.p.p.y.p.s.s.s.d.j.j.j.",
"i.i.i.i.i.i.s.s.s.i.i.i.s.s.s.s.s.s.s.s.s.s.s.s.s.s.s.s.s.s.s.s.s.s.s.s.s.s.s.s.s.s.s.s.d.d.d.d.j.j.d.s.s.s.s.d.d.j.j.l.l.l.l.l.",
"s.s.s.z.z.d.d.d.d.d.d.d.d.j.j.j.j.j.j.j.d.d.d.d.j.d.j.j.d.j.j.d.j.j.j.j.j.j.j.j.j.j.j.j.j.j.j.j.j.j.j.d.d.j.j.l.l.l.A.l.A.C.C.A.",
"d.z.z.d.d.d.j.j.j.z.z.j.j.j.j.j.j.j.j.j.j.j.j.j.j.j.j.j.j.j.j.j.j.j.j.j.j.j.j.j.j.j.j.j.j.l.l.l.l.l.l.l.l.l.A.C.C.C.C.C.C.C.C.C.",
"z.j.j.j.j.j.j.j.j.j.j.j.j.j.j.j.l.l.l.j.j.j.j.j.j.j.j.j.j.j.j.j.l.l.l.l.l.l.l.l.l.l.l.l.l.l.l.l.A.A.A.C.C.C.C.m.V.V.V.V.V.V.V.V.",
"j.j.j.j.j.j.j.j.j.j.j.l.l.l.l.l.l.l.l.l.l.j.j.j.l.l.l.l.l.l.l.l.l.l.l.l.l.l.l.l.l.l.l.l.l.l.A.A.C.C.C.C.m.V.V.V.V.N.N.M.M.M.M.V.",
"j.j.j.j.j.j.j.j.j.j.j.l.l.l.l.l.l.l.l.l.l.l.l.l.l.l.l.l.l.l.l.l.l.l.l.l.l.l.l.l.A.A.l.A.A.A.C.C.C.C.V.V.V.V.V.V.N.M.M.M.M.M.M.M.",
"j.j.j.j.j.j.j.j.j.j.j.l.l.l.l.l.l.l.l.l.l.l.l.l.l.l.l.k.k.k.A.A.k.A.A.C.C.C.C.C.C.C.C.C.C.C.C.C.C.m.V.V.N.N.M.M.M.M.M.q.q.q.q.q.",
"L.b.b.b.b.b.b.b.b.b.b.b.L.L.L.L.L.L.L.L.L.L.L.L.L.L.L.P.P.P.P.P.P.P.P.P.P.P.P.P.P.P.P.P.P.P.P.P.P.P.J.H.H.H.H.H.H.H.H.H.H.H.H.H.",
":X:X:X:X:X:X:X:X:X:X:X:X:X>X>X>X>X>X>X>X>X:X:X:X:X>X2X2X3X3X3X3X3X3X3X3X3X3X3X3X3X3X3X3X3X3X3XeXeXeXeXtXtXtXtXyXyXyXyXyXyXuXuXuX",
"5X5X5X5X5X5X5X5X5X5X5X5X5X6X6X6X9X9X9X9X9X6X6X6X8XqXsXdXfXfXhXhXhXhXhXhXhXhXhXhXhXhXhXhXhXhXhXhXjXkXlXbXnXmXmXmXmXNXNXNXNXNXNXNX",
"5X5X5X5X5X5X5X5X5X5X6X6X6X8X8X8X9X9X9XqXqX9X9X9XqXsXdXfXfXfXrX8XhXhXhXhXhXhXjXjXhXhXjXhXhXhXhXhXjXkXbXbXbXmXmXmXmXNXNXNXmXNXNXNX",
"5X5X5X5X5X5X5X5X6X6X6X6X6X8X9X9X0XqXqXqXqXqXqXqXsXdXfXfXhXeX].].7XhXjXkXbXbXbXbXbXkXkXjXkXjXjXkXkXbXbXnXmXmXmXNXNXNXNXNXNXNXNXNX",
"5X5X6X6X6X6X5X5X6X6X6X6X8X9X9XqXsXsXsXsXsXsXsXdXfXfXfXhXeX#XV.m.E.eXbXbXnXbXnXnXbXbXbXkXbXbXbXbXbXnXmXmXmXNXNXNXNXNXNXNXNXNXNXNX",
"6X6X6X6X6X6X6X6X6X6X6X8X9X9X0XqXsXsXsXsXdXdXdXfXfXfXhXrX#XV.B.M.M.E.eXmXmXmXmXmXmXmXmXnXnXnXmXmXmXmXNXNXNXNXNXNXNXNXNXNXNXNXNXNX",
"9X9X8X8X8X8X8X6X6X6X8X8X9X0XqXqXsXqXsXsXfXfXfXfXhXhXtX#XV.M.M.q.0.0.E.tXNXNXNXNXNXNXNXNXNXNXNXNXNXNXNXNXNXNXNXNXNXNXNXNXNXNXNXNX",
"qXqXqXqX0X9X8X8X6X6X8X9X9X0XqXqXsXsXsXdXfXfXhXhXjXtX#XB.M.M.B.M.0.4.1.R.tXNXNXNXNXNXNXNXNXNXNXNXNXNXNXNXNXNXNXNXNXNXNXNXNXNXNXNX",
"sXsXqXqXqXqX9X8X6X6X8X9X0X0XqXsXsXdXdXdXfXhXjXkXyX(.M.q.0.B.$X&Xr.<.,.,.K.yXNXNXNXNXNXNXNXNXNXNXNXNXNXNXNXNXNXNXNXNXNXNXNXNXNXNX",
"dXdXsXsXsXqXqX9X9X9X9X9XqXqXqXsXsXdXdXfXhXhXjXtX#XB.q.3.q.&XMXMX-Xw.>.>.,.K.yXNXNXNXNXNXNXNXNXNXNXNXNXNXNXNXNXNXNXNXNXNXNXNXNXNX",
"fXfXfXdXsXqX7X7X4X4X4X7X7X7X7X7X7X7X7X8XrXrXwX(.M.0.4.9.#XpXvXvXxX$X8.>.>.,.K.wXvXvXvXvXvXvXvXvXvXvXvXvXvXvXvXvXMXNXNXNXNXmXmXmX",
"hXhXhXhXfXrX$XY.I.Y.Y.Y.Y.Y.Y.Y.Y.I.I.I.I.T.K.B.0.0.4.<.r.G.G.G.G.r.<.>.>.>.,.r.G.G.G.G.G.G.G.G.G.G.G.G.G.G.F.$XcXNXNXNXmXmXmXmX",
"bXbXkXkXjXhXeX^.V.m.m.m.m.m.m.m.m.N.N.M.M.M.q.q.0.2.1.,.>.>.>.>.>.>.>.>.>.>.>.>.>.>.>.>.>.>.>.>.>.>.>.>.>.:.K.wXNXNXNXmXmXmXnXbX",
"mXmXbXbXbXbXbXtX^.V.B.B.V.S.E.#X#X#X#XR.V.M.q.0.D.Q.^.~.~.~.~.~.~.~.~.~.W.w.>.>.>.,.G.~.~.~.~.W.w.<.<.<.<.K.tXNXNXNXNXNXmXmXnXnX",
"NXNXNXNXmXmXmXbXyX^.M.q.q.Z.&XgXhXhXeX^.B.M.q.D.&XvXMXMXMXMXMXMXMXMXMXMXMX-Xw.>.>.:.K.tXMXMXMX-Xw.,.4.3.Q.tXNXNXNXNXNXmXmXnXnXnX",
"NXNXNXNXNXNXNXNXmXuX^.0.0.q.Z.*XfXtX(.V.M.M.Z.*XbXNXmXbXbXkXhXfXfXhXbXNXNXMX-Xw.>.>.,.K.tXMX-Xw.>.,.1.R.eXmXNXNXNXNXmXmXmXmXnXlX",
"NXNXNXNXNXNXNXNXNXNXaX^.0.3.0.Z.$X^.B.M.M.Z.[.>X|._.%.+.X.X.X.! Y Y / #._.}.XX$Xe.<.,.,.K.$Xw.>.>.,.K.tXmXNXmXmXmXmXmXmXmXmXmXmX",
"NXNXNXNXNXNXNXNXNXNXNXaX^.4.2.3.0.q.q.f.A T U U U E X.#.%.%.#.@.+.o.X.^ E Y U U T ] 6.9.<.,.>.>.:.W.tXNXNXNXmXmXmXmXnXnXnXmXmXNX",
"NXNXNXNXNXNXNXNXNXNXNXNXaX~.<.<.2.3.C s a n / o.o.+.o.o.^ E ^ X.o.@.#.%.).%.#.o.E P v D ] 7.8.<.K.tXNXNXNXNXmXmXmXnXnXnXnXnXnXlX",
"mXnXnXnXmXmXmXmXmXNXNXNXNXwXr.:.=.u @ 3 i i i = * * $ @ @ @ * * 5 i v E o.#.#.#.#.#.E D f f ] k.=XNXNXNXNXNXNXNXmXmXnXnXnXnXlXlX",
"nXlXlXlXlXlXlXbXbXnXmXNXuX~.,.-.u   .               . . @ @ @ @ # # * 3 6 a U +.+.o.) T D a a G n.3XNXNXNXNXNXNXNXmXmXnXnXnXlXlX",
"bXlXlXlXlXlXlXlXlXlXbXyX#Xw.,.A $             . . @ # # - 1 1 1 1 2 2 q q q p v U R T D f i e f [ Y.eXNXNXNXNXNXNXNXNXmXmXnXnXbX",
"lXlXzXmXNXNXmXmXmXnXfX*XE.H.e.f.f .       . . X @ @ @ # # > 2 2 7 w t h l l l l F | } D i 6 6 f } m.R.eXmXNXNXNXNXNXNXNXmXmXnXnX",
"lXlXmXNXNXNXNXNXNXMXgX2X*X].E.*X>Xn     # 1 1 , , - # # # - 2 9 W M 9 7 7 8 w F u.N.0.Y.U 4 a T g.V.V.E.3XbXmXNXNXNXNXNXNXNXNXNX",
"mXnXnXNXNXNXNXNXMXcXxXgXeX=X2XfXbXo.. # q 8 2 > - # # + + - 2 h ).`.v - ; 7 p L 3.3.E.eX&.4 t  .S.m.V.m.E.3XbXmXmXNXNXNXNXNXNXNX",
"hXbXmXmXmXNXNXMXcXxXxXxXxXrX7X=X].P # 4 t 2 - # # + + + - 7 9 k x.E.z.p 2 2 d G L t.K.#X .4 a  .J.C.C.V.m.R.3XbXbXmXmXNXNXNXNXNX",
",X5XqXhXlXmXvXxXxXxXxXxXxXxXwXE.] i $ r t 7 > > > - - > 8 w w g S 5.5.J l w w j x H f.3.=.D H [ y.d.k.C.m.m.Y.2XbXbXbXmXmXmXNXmX",
"`..X+X>X,X4X&X*XpXcXcXcXcXcXwX]...r 3 c l w 8 7 7 7 7 8 t w w x x.E.D.5.F j j l b ..U.!.T.n.n.n.n.Y.Y.Y.Y.R.R.[.rXkXbXbXbXbXbXmX",
"Q $.'.|.|..XXX>X8XbXmXNXNXNXNXMXsX%.c Q x h w 9 9 9 9 w 8 > l ).iX%XC.1.S x l b $.oXgXvXvXhXhXiX7X7X7X7X8XrXrXiXfXhXjXkXkXbXbXbX",
"M b Q ).`.'.'.|.OX<XfXmXNXNXNXNXNX,X! Q l h h g w w 9 9 7 ; 8 ! /.x.u.L x x b O.|.fXmXnXmXmXnXsX9XqXqXqXsXsXdXfXhXhXhXhXhXjXkXkX",
"N b M O.&.)._.`.'.|.>XqXbXNXNXNXNX6X( M l h h h t w 9 8 2 ; ; ; 7 x H J W W $.|.6XmXmXnXmXbXhXsX9X9X9XqXqXqXsXdXdXfXfXhXhXhXhXhX",
").).`.'.|.+X<X6X5X<X<X9XhXnXmXNXNX6X( c j h h h w 9 8 7 2 ; ; 7 k F ../.{.{.oX6XfXNXmXmXmXmXmXsX6X8X8X9XqXqXqXsXsXsXdXfXfXfXfXfX",
",X<X5XqXlXNXNXNXNXNXmXnXmXNXNXNXNXhX_.b h h h h 9 7 2 - - - ; 0 p l S /.{.).`..X9XmXmXnXnXnXjX6X6X6X6X9X9XqXqXqXqXqXsXsXsXdXdXsX",
"bXnXbXfXfXbXNXNXNXmXnXnXNXNXNXNXNXmX1XQ h h h w 9 2 - + + # - - ; ; ; : p l l Q ,XNXmXlXlXnX9X5X5X5X5X6X6X8X9X9XqXqXqXqXqXqXqXqX",
"mXNXsX#.+._.+X5XsXhXlXmXNXNXNXNXmXzXkX$.h h t w 8 7 7 2 ; : < < < < x $.{.).b N <XNXnXlXlXjX,X,X,X,X<X<X<X5X5X5X6X6X6X8X8X9X9X9X",
"lXnXdX! c U ! #._.9XlXlXlXzXlXlXlXlXmX{.l t w 9 9 8 9 9 8 7 : : : 0 Q `.oXoX`.$.0XnXnXlXnX6XoX.X.XXXOXOX+X>X,X,X,X,X<X<X<X<X5X5X",
"lXmXbX).I Q v #.,XbXnXnXnXnXnXnXmXmXNX9XM 8 8 9 9 9 w w w 9 8 8 9 l Q $.%.OXOXoXlXnXnXnXlX,XoX.X.X.X.X.X.X.X.X|..X.X.XoXOXOX+X+X",
"mXmX5X&.! #..XkXNXNXNXNXNXNXNXNXNXNXNXbX$.4 4 8 8 w t t t w g w w g W `.1XsXdXnXmXmXnXmXjX,X@X+X+X+X+XOXOXOXOXoXoX.X.X.X X|.|.|.",
"yX4X}.}.=XeXxXxXpXpXpXpXpXpXpXpXpXpXpXyX_.r 2 2 2 8 9 w w w q 8 8 w W }.eXyXyXyXyXiXrXrX7X;XXXXXXXXXXXXXXXXXXXXXXXXXXX.X.X|.}.}.",
"P.v.j.a.} ] ] ] a.h.Z.e.e.e.w.w.w.w.w.e.p.p 2 1 1 2 2 2 4 4 2 2 8 l ' c.S.Z.C.a. . .x.x...'  .z.c.v.v.v.v.v.v.v.v.v.v.v.v.v.v.v.",
"C u = @ o o . o @ & y u B B V V Z Z Z A G p 4 2 1 , * # * 1 1 1 1 q s D G G c l c b H H c a c v G } j.k.k.l.l.l.l.g.g.g.g.g.g.g.",
"o .                         . . . @ @ # 6 t q q 2 1 , 1 # , , * , 2 4 r p l t l l c c l a a a a v ) ` u.k.m.C.C.C.C.C.C.C.C.C.C.",
"                          . O X . . . X 3 r w q w 8 8 4 2 2 2 2 q q p l c c c l l a 6 e a s a f D T ) [ a.m.M.M.N.N.M.N.N.M.N.N.",
"                        . & 5 * @ O O X 3 r q q 8 4 4 8 8 8 8 q q w p l l l l l r 3 * i D T T T T [ } a.a.f.1.1.1.1.2.2.2.2.1.1.",
"      .               . . @ @ * & @ @ @ * * * % @ % % * 1 2 4 q p p p l a r 6 3 3 * 5 6 i G [ [ ] t.a.a.t.2.:.:.:.:.:.:.:.:.:.:.",
"o . . . . .           . . . . . . o X O O O @ @ @ @ @ @ @ * 3 i a c f s 3 % @ & * 5 i i 5 V ] ] t.f.6.=.-.;.;.;.;.;.;.;.;.;.;.;.",
"o . . . . . . .           . . . . . . O O O O @ @ @ @ @ & * * * 5 i i i e * @ & * 5 i i i s K ] A =.-.*.*.*.-.-.-.=.7.7.7.7.7.7.",
"i * X . . . . o . . o o o o o . o o o O O O O O O O O @ @ O O O O @ & = = = & & * = 5 5 = 5 d V i V ] A -.-.=.=.t.t.h.h.j.j.j.j.",
"K G s 5 @ .   . . . . . . . . . . o . o o o o o o o o @ @ O O o o o o O O O O O @ & & * * * e d i d V d d C A =.=.t.a.a.s.z.z.z.",
"C C K G V =                     . . . . o o . o o o O & & O O O O O o o O O O O O @ @ & & & * i d i i e 5 i V Z Z Z A A K K ] ] "
};
