/* XPM */
static char *dead6fd2103d40428289b8648493ce0bB9V1n4qNQdl3A4ux[] = {
/* columns rows colors chars-per-pixel */
"64 64 241 2 ",
"   c #030302",
".  c #090603",
"X  c #060907",
"o  c #0B0906",
"O  c #060909",
"+  c #0C0D0B",
"@  c #130A06",
"#  c #180C06",
"$  c #120D0A",
"%  c #190E09",
"&  c #0C110F",
"*  c #0F1D0C",
"=  c #14120E",
"-  c #1B120D",
";  c #100F10",
":  c #0E1211",
">  c #131312",
",  c #1B1612",
"<  c #141915",
"1  c #1B1A15",
"2  c #151718",
"3  c #151B1A",
"4  c #1B1C1B",
"5  c #21130C",
"6  c #27190F",
"7  c #261813",
"8  c #241A15",
"9  c #231E1A",
"0  c #2A1E1B",
"q  c #1C2718",
"w  c #173514",
"e  c #24221D",
"r  c #2B231A",
"t  c #2B221D",
"y  c #32231D",
"u  c #33241C",
"i  c #1B1F20",
"p  c #1D2223",
"a  c #1D3720",
"s  c #232424",
"d  c #2D2522",
"f  c #262925",
"g  c #2C2A25",
"h  c #222629",
"j  c #242C2C",
"k  c #2A2C2B",
"l  c #342622",
"z  c #342B25",
"x  c #3B2B26",
"c  c #3A2D29",
"v  c #2A322B",
"b  c #36312C",
"n  c #3B332D",
"m  c #292E31",
"M  c #2B3234",
"N  c #2C3837",
"B  c #333333",
"V  c #3A3634",
"C  c #343936",
"Z  c #343C3B",
"A  c #3C3C3C",
"S  c #412E29",
"D  c #43322C",
"F  c #4A362E",
"G  c #51362E",
"H  c #463835",
"J  c #443B34",
"K  c #4B3B34",
"L  c #543D38",
"P  c #35433E",
"I  c #2B5131",
"U  c #3E743D",
"Y  c #4A4239",
"T  c #4C423C",
"R  c #53443B",
"E  c #5B443D",
"W  c #56483C",
"Q  c #405D3D",
"!  c #634A3D",
"~  c #41713E",
"^  c #323F40",
"/  c #374744",
"(  c #3A504B",
")  c #3D6A43",
"_  c #464748",
"`  c #544B43",
"'  c #564946",
"]  c #5B4D43",
"[  c #5C5146",
"{  c #57524C",
"}  c #5C534C",
"|  c #504D50",
" . c #495755",
".. c #585858",
"X. c #634B43",
"o. c #684D45",
"O. c #704F4D",
"+. c #63554B",
"@. c #6A564C",
"#. c #65594D",
"$. c #73564A",
"%. c #685753",
"&. c #655B53",
"*. c #6A5B52",
"=. c #765C55",
"-. c #48714C",
";. c #6D6157",
":. c #74655B",
">. c #76665A",
",. c #7A6A5E",
"<. c #5C5E61",
"1. c #5C6366",
"2. c #67696B",
"3. c #776863",
"4. c #7D6D62",
"5. c #7E7165",
"6. c #696E73",
"7. c #6A757A",
"8. c #727375",
"9. c #815E54",
"0. c #86665C",
"q. c #916D5E",
"w. c #8A6C64",
"e. c #966A66",
"r. c #837365",
"t. c #887867",
"y. c #84756B",
"u. c #89766B",
"i. c #8C7A6C",
"p. c #96766B",
"a. c #897773",
"s. c #8D7C71",
"d. c #927D73",
"f. c #9B7C74",
"g. c #A7796C",
"h. c #A67B77",
"j. c #B47275",
"k. c #C1747C",
"l. c #4D9153",
"z. c #8F8070",
"x. c #948374",
"c. c #978777",
"v. c #9A857B",
"b. c #9C8C7B",
"n. c #9F907F",
"m. c #A5806F",
"M. c #A8867A",
"N. c #B48D7C",
"B. c #B8887A",
"V. c #A1917F",
"C. c #B8917D",
"Z. c #C1907E",
"A. c #6F7A82",
"S. c #747D84",
"D. c #BD7B82",
"F. c #C77B83",
"G. c #D47F8C",
"H. c #77838B",
"J. c #7D8C96",
"K. c #7C9393",
"L. c #858688",
"P. c #9C8D83",
"I. c #9F9180",
"U. c #838D97",
"Y. c #86949B",
"T. c #A68C83",
"R. c #AB8D85",
"E. c #B38B83",
"W. c #BA8B85",
"Q. c #A49482",
"!. c #A99986",
"~. c #AA9788",
"^. c #B59383",
"/. c #BC9483",
"(. c #B7978A",
"). c #BC9A8C",
"_. c #AA9691",
"`. c #B59A93",
"'. c #BC9E92",
"]. c #BAA18F",
"[. c #BCA394",
"{. c #BBA59A",
"}. c #8596A2",
"|. c #8798A5",
" X c #8899A6",
".X c #8A9BA8",
"XX c #969FA4",
"oX c #96A8AE",
"OX c #A9B2B9",
"+X c #C78C85",
"@X c #C89788",
"#X c #C49B8B",
"$X c #D3908E",
"%X c #D19A8C",
"&X c #C79D93",
"*X c #C8A28E",
"=X c #CBA493",
"-X c #C7A598",
";X c #CCAB9C",
":X c #D8A695",
">X c #D5AB95",
",X c #D0AC97",
"<X c #D3AD9D",
"1X c #DBAC9B",
"2X c #D4B19E",
"3X c #DDB29C",
"4X c #E1AD9C",
"5X c #E2B39E",
"6X c #C9ADA3",
"7X c #D5ADA2",
"8X c #DAACA3",
"9X c #CDB3A7",
"0X c #D3B2A3",
"qX c #DBB4A3",
"wX c #DCB4AA",
"eX c #DAB9AB",
"rX c #DCBBB3",
"tX c #E2AEA6",
"yX c #E3B4A3",
"uX c #E3BAA5",
"iX c #E9B9A6",
"pX c #E4B3AB",
"aX c #E4BBAB",
"sX c #EBBBAA",
"dX c #F0BDAD",
"fX c #E3BCB3",
"gX c #EBBDB2",
"hX c #E7BFB9",
"jX c #D5C5B5",
"kX c #E5C0AE",
"lX c #E7C3B8",
"zX c #EBC4BC",
"xX c #F1C1B5",
"cX c #B3BDC5",
"vX c #B5C2CA",
"bX c #C3CCD3",
"nX c #CBD5DC",
"mX c #CCD6DD",
"MX c #CDD7DE",
"NX c #E9C9C0",
"BX c #CFD9E0",
/* pixels */
"              N |. X X X X XOXmXMXMXMXMXMXMXMXmX6.d ...X1.H..X X X X X X.X| @ $ @ @ @ @ @ - d z d ` a.Q.Q.~.~.~.~.~.~.~.!.!.!.!.",
"              M }. X X X X XOXMXMXMXmXMXMXMXmXmX6.d B 1._ U..X}.J. X X X X| $ % $ # @ @ # % z n n H 4.b.Q.Q.~.~.!.!.!.!.!.!.!.!.",
"              M }. X X X X XcXmXmXmXmXmXMXMXMXMX8.d t 0 _  X.XH.A..X X X X_ - - - % @ @ % # 9 z H D +.c.Q.Q.!.!.!.!.!.!.!.!.!.!.",
"              M }. X X X X XvXmXmXmXmXmXMXMXMXMX8.B b g 6..X|...S..X X}.}.A 5 8 7 5 # @ % - 5 d D D L i.Q.Q.Q.~.!.!.!.!.!.!.!.!.",
"              M }. X X X X XvXMXmXMXMXMXMXMXMXmX8.A V A J..X7.| }. XY.H.J.n 0 t 0 7 5 # # - 5 t z c K :.I.Q.Q.Q.!.!.!.!.!.!.!.!.",
"              M }. X X X X XvXMXmXmXMXMXMXMXMXmX8.V V 6..XH._ A..X XS.H.H.z u c l u 6 % % 5 8 u t y H +.c.Q.Q.Q.Q.!.!.~.!.!.!.~.",
"              m }. X X X X XvXMXmXmXMXMXMXMXMXmX2.k | }.U._ V J. X}.1.J.7.x c K D x r 5 5 5 0 x t 0 c ' i.Q.Q.Q.Q.Q.Q.~.!.!.Q.Q.",
"              i J..X.X.X.X.XvXMXMXmXmXMXMXMXMXmX2.s .. X7.T | }..XA...}.<.l c R R S l 7 7 7 y S l 8 l K :.I.Q.Q.Q.Q.Q.Q.!.!.Q.Q.",
"              X / 7.A.A.A.A.OXBXMXmXmXMXMXMXmXMX1.e _ 7...' A..XY._ 6.}._ l c E X.K x y y u l S c 0 t n } c.I.Q.Q.Q.Q.Q.Q.Q.Q.Q.",
"                  + + & & + _ bXMXMXmXmXMXmXmXMX..e H | ' <.}..X6._ J.S.n x c E @.E F x x x x S S l 0 z K s.b.I.Q.Q.Q.Q.Q.Q.Q.Q.",
"                X X O O o O + L.MXMXmXmXMXMXmXmX..d ' ' _ H. XS.` <. X..l F S L =.o.L D D D D D x x t d b 3.b.b.V.Q.Q.Q.Q.Q.Q.Q.",
"      X X O O O O o o + + + o k cXMXMXmXmXMXmXmX1.B &.T | }.S.+.` H.Y.H x E E L %.=.L D L D D D l l d 0 z *.c.b.b.n.Q.Q.Q.Q.Q.Q.",
". . o o o o o o o o + + + & & + 1.mXMXmXmXMXMXmX2.T &.D } U.y.:.<.|.S.K R =.w.] X.%.L F ' F D D l 0 t 9 z } x.b.b.b.I.Q.Q.Q.V.Q.",
". o o o o o o o + + + + & : > : 4 XXBXmXmXmXmXmX2.' } D :.Q.Q.5.H.}.3.E $.M.E.0.E X.R L o.L D c t 8 0 8 t H i.c.c.b.b.Q.Q.Q.V.Q.",
"o o o o o o + + + + $ = > > 1 q q _ vXMXmXmXmXmX6.} T ' v.[.~.L. XL.:.X.p.;X-XE.O.K E E =.E S x 0 5 7 8 8 l :.c.c.c.b.b.Q.V.Q.Q.",
"o o o + + + + + + $ = > > 1 e f f 4 H.MXmXmXmXmX8.} H =.`.;Xs.U.U.3.o.0.#XwX-XE.0.E L L =.' S l 8 , , , 7 9 ` s.c.c.b.b.b.V.V.Q.",
"o o $ $ $ $ $ $ $ $ = = > , 4 e 4 > k OXMXMXMXmX8.[ K a.{.R.K 1.2.X.X.M.7X-XM.p.h.w.X.K @.] D l 7 - - , 9 e n :.x.c.c.b.b.n.V.Q.",
"o o $ $ $ $ $ $ $ $ $ = = > , , > + > ..bXMXMXmXL.} W P.~.E 0 u T E f.-XE.h.E.).-X(.0.F ] ] D u 5 % - , 9 e z +.i.x.c.b.b.n.b.V.",
"o o $ $ $ $ $ $ $ $ $ = = = > > > + s j Y.BXMXmXL.%.=.Q.*.y y D @.R.eXwX(.&X7X8X8X=Xf.G E E D u 5 # - , 9 e z ;.t.x.c.c.b.b.b.b.",
"o o $ $ $ $ @ $ $ $ $ = = = = = = + M j A vXBXMXP.4.v.d.D D ] s.{.lXNXhXeXfXhXfXfXwXM.L =.X.D u 5 # - - 9 t n :.i.x.x.c.b.b.b.b.",
". o o o o o o o $ $ $ $ $ $ = = = + M N 2 ..OXOXa.u._.a.*.x.{.rXlXlXNXzXzXNXzXzXzXfXE.E a.,.F u 5 # % - , g ` :.x.x.x.c.b.b.b.b.",
". . o o o o o o @ @ @ $ $ $ = = = : M N 3 3 k { 3.y.P.P.P._.{.9XrXlXzXNXNXNXzXzXzXfXE.X.f.v.o.S 5 # $ $ - b ` ;.x.x.x.c.c.b.b.b.",
". . . . . . o o o o o o o $ $ = 1 3 N Z p p f { :.4.s.y.5.3.3.a.`.rXlXNXNXzXlXfXrX9Xf.L p.R.0.G 5 # @ @ - g n #.s.x.x.c.c.b.b.b.",
"  . . . . . . . . . o o o + $ > k v / / j p M ..:.5.i.u.a.3.%.%.d.6XrXzXzXlXeX;X(.f.O.F w.v.w.L 8 @ @ @ , - e ] s.x.x.c.c.b.b.b.",
"        .   . . . . . X X o $ 1  . ./ ^ j j C &.3.i.V.(.[.'.~.T.T.-XrXlXlXfX<X^.w.$.L L r.p.:.E r = o $ z , , T y.x.x.c.c.c.b.b.",
"                    . . X o $ 4 S.7./ ^ j m A ;.y.b.~.'.-X<X<X;X'.*X0XaXkXqX=XN.f.w.X.@.(.R.0.! F , @ = z f , b 4.x.x.x.c.c.c.b.",
"                        X o + s U.H./ ^ j m _ 3.c.R.T.(.&X;X-X).^.^.,XuXuX<X).^.(.M.=.0.'.-Xp.$.X.9 > , e B 9 u ;.x.x.x.x.c.c.c.",
"                        X o + q U.K.( P j M _ 4.R.V.u.f.M.R.R.M.M.N.#XuXaX#X^.^./.N.w.m.).#XN.q.o.t 1 1 f A 4 e +.z.x.x.x.c.c.c.",
"                        X o + 4 U.Y.( P v M | y.(.M.o.E W L @.w.M.^./.uXuX@X/.^.^.).^.)./.@XN.p.$.d e e k A 1 r W i.x.x.x.x.c.c.",
"                        X + + 4 U.XX( / m M { a.(.).:.:.a.d.d.p.N.(./.qXqX#X#XN.m.p.d.M.N.C.N.g.=.z f h M A > e H r.d.x.x.x.x.c.",
"                        X + & 1 H.oX( / N N ..d.).-XT.T.`.6X-X-X-X).E.1X1X%X&Xh.f.+.T X.0.m.C.m.=.z k j C Z 1 z D :.s.x.x.x.x.x.",
"                        X + & 3 S.oX( P N C ..d.].<X;X'.[.-X;X;X=X/.E.8X1X@X=X#X`.y.+.%.o.p.C.B.=.b M k Z C e V b %.i.s.x.x.x.x.",
"                        X + : 3 7.oX( P N C ..x.*X2X2X0X2X2XqX2X=XN.W.8X1X+X%X=X&X'.R.M.w.m.%XB.=.B B m P C k A z [ t.i.x.x.x.x.",
"                        o + : 2 1.Y. .P N C } x.*X2XqXqXwXuXuXqX=XN.W.8X4X+X%X=X#X).#XW.B.@X:XC.=.V M M P M C P t W t.i.d.x.x.x.",
"                        o + : :  .K. .P N N { x.*X<XqXwXuXuXaXqX#XN.W.tXtX+X%X1X<X=X&X@X@X1X:XC.=.V M N P m _ / e ] t.i.s.x.x.x.",
"                      O o + : : / H. .P N M { v.[.<XqXwXaXaXaX0X#XN./.pXtX+X%X5XyXyX1X1X5X5X1X+X:.V M C A M  .A t +.t.i.i.x.x.x.",
"                      O + + & & N 7. .P N M { v.'.<XqXeXaXlXfX8X/.N.@XpXtX+X%X5XiXiXiXiXiXiX4XZ.=.V M Z C Z ..C g ;.t.i.i.s.x.x.",
"                      O + + & & h 1.-.-.N M } v.'.7XwXfXlXzXlX7X^.M.#XfXtX+X%XyXiXsXsXsXiXiX1XC.@.B M Z N _ 1.B z ,.t.i.i.s.x.x.",
"                    O O + + & & 4 ( -.-.N m ..b.'.0XeXlXzXzXlX7XN.M.&XgXtX+X%XyXsXsXsXsXiXyX:XB.X.B M Z N ..1.k n 4.t.i.i.i.d.x.",
". . . . X X X .     O + + + & + 3 Z ) l.I j &.b.'.0XfXlXzXzXfX=XM.M.<XgXpX+X%XiXsXdXsXsXiX5X:Xg.R M C Z Z 2.<.e Y r.t.i.i.i.s.z.",
"+ o o + + + + o X X + + + + & + : j I l.I j ;.Q.[.0XrXhXhXwXqX#XM.W.8XhXpX@X:XsXxXxXsXsXiX4X%Xp.K M C C / 7...e ` r.t.t.i.i.i.s.",
"= = = = = = = $ + o + + + : : + + 2 a l.I k 3.~.].0XrXfXwX7X<X).M.).pXzXpX%X:XgXxXxXgXsXiX4X%Xq.H M Z C _ 7._ e #.r.t.t.i.i.i.i.",
", , , , , , - = $ $ & + + : : + O + * U I v 5.~.).;XwXwX7X<X<X^.m.).fXzXpX%X:XsXxXxXgXsXyX4X@X9.b j Z N  .6.Z g :.r.t.t.t.i.i.i.",
"e 9 9 9 9 9 8 , , > > + + > 2 : O O o I I k u.`.(.;X7X<X;X2X0X^.w.M.fXzXtX+X%XpXxXxXgXsXyX:XZ.$.g k Z N  .1.m n ,.r.y.t.i.i.i.i.",
"t d d d d t e 9 , , > & : 2 3 3 : O X w a k a.[.(.;X;X*X,X7X0X*Xp.w.;XwX@Xj.%XyXgXgXgXsXyX:XB.! f M Z N .. .h H 4.r.r.t.t.i.i.i.",
"z c c c z z z d e , = : : 2 4 4 3 : & < q f u.[.'.;X;X/.*X;X<X;X).p.h.).g.g.:XyXaXgXgXaX1X:XB.L q M Z N  ._ s ` r.r.r.t.t.i.i.i.",
"D D D D n n b b z 1 = > > 3 4 p 4 3 > < > f 5.[.[.9X<XC./.=X=X,X;XR.w.e.g.%X4XiXaXaXaXpX1X%XM.D 4 C Z Z  .C s +.r.r.r.r.t.t.t.i.",
"Y Y Y K H H H H g > = > 3 4 p p p 3 3 < > 9 :.[.].0XwX#XN./.#X-X7X6XE.E.=XyXyXiXiXaXaXyX1X%Xg.x e Z N N / h d ;.5.r.r.r.r.t.t.t.",
"R R R R Y Y Y H e > = < 4 p p p p i 3 2 > 4 ;.`.].9XkX;Xe.9.p.W.7XwX8X<X1XyXyXyXiXiXyX3X:X%Xq.r k ^ h m C 4 V 3.4.4.r.r.r.r.t.t.",
"] ] ] W W R R H 4 = > 3 p p s s p i 3 3 < 1 { Q.].;XkXqXh.O.w.h.W.8XpXpXtX4X1X1X5XyXqX1X:X@X=.8 k C 4 s h 4 T 4.4.4.r.r.r.r.t.t.",
"[ [ [ [ [ W W n 1 = > 1 p h h s p p 3 3 < 2 Y x.~.-XkXqXE.w.T.6X(.W.&X:X8XtX1X:X1X3X3X>X=XC.! , k h > 4 1 4 ' ,.4.4.r.r.r.r.t.t.",
"+.[ [ [ [ [ W g > : > 3 s h h h p p 3 3 < 2 b 5.Q.[.kXqXE.p.Q.jXjX6X'.W.B.@X&X%X1X3X3X=X#XM.K , s 1 < 4 2 d +.:.,.4.r.r.r.r.r.t.",
"#.+.+.+.+.[ Y 9 > > > > 4 s h s p p 3 3 3 : f ;.c.(.eX0XE.g.h.9XjXjXjX6Xh.e.g.@X1X5X1X#X/.p.x , 2 = > 4 9 T ;.:.,.4.4.r.r.r.r.y.",
"#.#.#.+.+.[ n > = > > > > 2 4 i p i 3 3 : + < ` i.Q.;X2XE.g.j.W.6XeXjX6Xh.j.B.1XyXyX>X#XN.0.0 - > > > e T %.;.:.,.,.4.r.r.r.r.r.",
"#.#.#.#.+.` f > : > > > > ; > > 2 2 2 : + O + n ,.c.[.;XE.e.j.j.j.W.W.W.W.+X:XuXuX3X=X@XM.$.5 = > 9 e Y *.*.;.:.,.,.4.4.4.r.r.r.",
"%.#.#.#.+.H 4 > : > > > > > $ $ + & + + o O o e +.z.(.;X).p.j.$XF.k.j.F.+X+X1XuX3X>X#X/.g.G % = > f e H #.*.;.:.:.,.4.4.4.r.r.r.",
"*.%.#.#.] g > > : > > > > > $ $ + + + + o o X 1 ` y.R.-X*XR.h.F.$XG.G.F.F.%X3X3X1X=X/.N.0.l $ = > f e e R *.;.;.:.:.,.4.4.r.r.r.",
"*.#.#.#.H 4 > > > > > > > > > $ = + + + + = o 1 T ,.Q.{.[.-X`.W.D.F.k.j.+X1X3X1X>X#XC.m.O.7 $ = > g e 9 t W *.;.:.:.,.,.,.4.r.r.",
"#.#.#.] d > > > 2 > > > > > > > = + + + 4 k + g W *.c.[.-X;X9X6X#X+X+X%X1X3X1X>X=X@XN.w.D = $ > q Q e 1 e t T *.:.:.:.,.,.4.4.r.",
"#.#.+.n 1 > > 3 3 > > > < < > > = + + 4 P B > V [ [ 5._.-X;X0XrXrXwXyXyX3X3X>X>X*X/.m.o.8 $ ; > q -.q , 1 4 e n ] ;.:.,.,.4.4.4.",
"&.+.H 9 < > > 4 i > > > 2 2 > > > $ < | 6.^ e ` *.[ &.v.[.;X0XrXlXlXkXuXyX3X>X>X#XN.q.S = & & > q -.q = , 1 1 1 t H +.:.,.,.4.4.",
"} H e 1 > > 2 p s 2 : > 2 2 2 2 1 1 s _ | C V +.:.#.] r.`.;X0XfXzXzXlXaXyX3X>X=X@Xm.$.y = $ $ > q -.q = = - , , 1 9 g H &.:.,.,.",
"V e < > > 2 4 s h 2 > 2 4 4 i i s s h j j B { ;.5.:.] %.v.-X0XfXlXlXgXaXyX3X>X#XN.0.! y = @ = , q ~ w = = = = , , 1 1 9 z ` ;.,.",
"9 2 > > > < 4 h h i 4 i p p p s s s k M M _ ;.4.u.y.*.] r.`.0XfXlXlXfXaXqX>X*XC.q.$.o.u - = = , q ~ w * = = = = > , , 1 1 e H &."
};
