/* XPM */
static char *c7eed10c3d8b4a3ddedb2a3f4d2073adA3G0sDPZOyaw0f2U[] = {
/* columns rows colors chars-per-pixel */
"64 64 80 1 ",
"  c white",
". c black",
"X c #010101",
"o c #020202",
"O c gray1",
"+ c gray2",
"@ c #060606",
"# c #070707",
"$ c gray3",
"% c #090909",
"& c gray4",
"* c #0C0C0C",
"= c gray5",
"- c #0E0E0E",
"; c gray6",
": c #111111",
"> c #131313",
", c gray9",
"< c #181818",
"1 c gray10",
"2 c gray12",
"3 c gray13",
"4 c #222222",
"5 c gray14",
"6 c #252525",
"7 c #282828",
"8 c #2C2C2C",
"9 c #2D2D2D",
"0 c #323232",
"q c #343434",
"w c #373737",
"e c #393939",
"r c #414141",
"t c gray27",
"y c gray28",
"u c #494949",
"i c #4B4B4B",
"p c #4E4E4E",
"a c #525152",
"s c gray33",
"d c #565656",
"f c gray34",
"g c #5A5A5A",
"h c #5B5B5B",
"j c gray36",
"k c gray37",
"l c gray38",
"z c #626262",
"x c #656565",
"c c #686868",
"v c gray45",
"b c gray48",
"n c gray49",
"m c #7E7E7E",
"M c gray50",
"N c gray52",
"B c #898989",
"V c #8E8E8E",
"C c #909090",
"Z c #929292",
"A c gray58",
"S c #959595",
"D c gray63",
"F c gray66",
"G c #AAAAAA",
"H c #ACACAC",
"J c gray69",
"K c gray73",
"L c gray77",
"P c #C6C6C6",
"I c #CDCDCD",
"U c #D2D2D2",
"Y c LightGray",
"T c gray90",
"R c gray91",
"E c #ECECEC",
"W c gray94",
"Q c #F1F1F1",
"! c #F3F3F3",
"~ c gray96",
/* pixels */
"                                                                ",
"                                                                ",
"                                                                ",
"                                                                ",
"                                                                ",
"                                                                ",
"                                                                ",
"                                                                ",
"                                                                ",
"                                                                ",
"                                                                ",
"                                                                ",
"                                                                ",
"                                                                ",
"                                                                ",
"                                                                ",
"                                                                ",
"                                                                ",
"          ...........                    ........... ..         ",
"        ...................        ...............@@.. .        ",
"     . .....       .........       ..........       ...         ",
"      .@.                                             ..        ",
"      .                                                 @       ",
"                                                                ",
"              -@         .          .     %.....@>              ",
"           3kZr@.%2,g9.   .         .   .tc....7xDv5            ",
"          iGWWp.-<g<KV>   .         .   9PA@..3dMWWHi           ",
"          BIERk.@@.-PTl                0Z~J-..%%bUUGl           ",
"           etdw...%-MAMt               aMNd>....5ww5            ",
"                                                                ",
"                                                                ",
"                                                                ",
"                                                                ",
"                                                                ",
"                                                                ",
"                                                                ",
"                                                                ",
"                                                                ",
"                                                                ",
"                                                                ",
"                                                                ",
"                                                                ",
"                                                    .           ",
"                                                   .            ",
"                                              .    .            ",
"                                             .                  ",
"                                           ..     .             ",
"                                         ..       .             ",
"                                   ......                       ",
"                 ....................                           ",
"                 ..                                             ",
"                                                                ",
"                                                                ",
"                                                                ",
"                                                                ",
"                                                                ",
"                                                                ",
"                                                                ",
"                                                                ",
"                                                                ",
"                                                                ",
"                                                                ",
"                                                                ",
"                                                                "
};
