/* XPM */
static char *_96e71075fb64078d7388d744c9e2e16krdJ2tELCSq9JKWm[] = {
/* columns rows colors chars-per-pixel */
"64 64 244 2 ",
"   c #2C170B",
".  c #33180C",
"X  c #3B1E11",
"o  c #341C12",
"O  c #2F1B12",
"+  c #35241B",
"@  c #3A2517",
"#  c #2E231C",
"$  c #3A2A23",
"%  c #3F3029",
"&  c #43261B",
"*  c #442B1C",
"=  c #4C2D1B",
"-  c #452615",
";  c #532E1C",
":  c #48331D",
">  c #53321D",
",  c #59351F",
"<  c #41220E",
"1  c #4A2E23",
"2  c #4D3524",
"3  c #4A362A",
"4  c #533623",
"5  c #553A25",
"6  c #5A3926",
"7  c #543C2B",
"8  c #5B3D2B",
"9  c #593727",
"0  c #4A3C35",
"q  c #543E33",
"w  c #613E2B",
"e  c #5D402C",
"r  c #5C4333",
"t  c #5A4637",
"y  c #4B4138",
"u  c #64422D",
"i  c #67432B",
"p  c #644533",
"a  c #6B4A35",
"s  c #644B3C",
"d  c #6B4C3C",
"f  c #684735",
"g  c #6B513E",
"h  c #74523D",
"j  c #77533A",
"k  c #714C3A",
"l  c #5B4F4E",
"z  c #695347",
"x  c #7B5D4B",
"c  c #755846",
"v  c #6A5A53",
"b  c #735E52",
"n  c #7C5F51",
"m  c #634D40",
"M  c #7C6759",
"N  c #7E624F",
"B  c #796964",
"V  c #767172",
"C  c #82624D",
"Z  c #8B674F",
"A  c #826552",
"S  c #846A5B",
"D  c #886957",
"F  c #89715E",
"G  c #96755D",
"H  c #936E59",
"J  c #876E63",
"K  c #857163",
"L  c #8C7364",
"P  c #8C7569",
"I  c #8D7B6B",
"U  c #86746D",
"Y  c #927565",
"T  c #957A66",
"R  c #927769",
"E  c #947A6B",
"W  c #997D6D",
"Q  c #9B7B65",
"!  c #8D7C73",
"~  c #877975",
"^  c #927E73",
"/  c #9A7E70",
"(  c #937E79",
")  c #A17E60",
"_  c #9D816D",
"`  c #8E8179",
"'  c #958174",
"]  c #9D8273",
"[  c #95827B",
"{  c #9B857C",
"}  c #9D8A7D",
"|  c #9A8979",
" . c #9D907F",
".. c #A3826D",
"X. c #A28574",
"o. c #A68975",
"O. c #AA8B76",
"+. c #A38779",
"@. c #A48A7B",
"#. c #AA8D7B",
"$. c #AA8575",
"%. c #B18A79",
"&. c #AE927D",
"*. c #A5907D",
"=. c #B2937D",
"-. c #BE9B7E",
";. c #B89479",
":. c #B0886E",
">. c #C09C7F",
",. c #8D8788",
"<. c #9C8C84",
"1. c #9B8E8A",
"2. c #948986",
"3. c #9C918C",
"4. c #9A9188",
"5. c #9D9593",
"6. c #9A9696",
"7. c #948F93",
"8. c #A38C84",
"9. c #AA8E81",
"0. c #A38E89",
"q. c #A28780",
"w. c #B88985",
"e. c #A59284",
"r. c #AD9284",
"t. c #A4938C",
"y. c #AA948B",
"u. c #AC9B8B",
"i. c #A6988E",
"p. c #B29682",
"a. c #B59A85",
"s. c #BC9C85",
"d. c #B49A8A",
"f. c #BB9E8A",
"g. c #B7948A",
"h. c #A39592",
"j. c #AA9691",
"k. c #A59A94",
"l. c #AC9B94",
"z. c #A29C9A",
"x. c #AB9E99",
"c. c #B29D95",
"v. c #B29F99",
"b. c #BA9C96",
"n. c #BEA084",
"m. c #BDA18D",
"M. c #ACA196",
"N. c #ACA39B",
"B. c #A6A29A",
"V. c #B5A194",
"C. c #BDA392",
"Z. c #B4A39B",
"A. c #BBA49C",
"S. c #BBAA9D",
"D. c #B7A99C",
"F. c #9E9BA3",
"G. c #A29EA4",
"H. c #AAA6AC",
"J. c #A8A4A8",
"K. c #B5A6A1",
"L. c #BAA6A1",
"P. c #B5A9A2",
"I. c #BDABA4",
"U. c #BDAEA9",
"Y. c #B4ABA9",
"T. c #BEB1AB",
"R. c #BEB0A5",
"E. c #ADAAB2",
"W. c #B2AEB2",
"Q. c #BEB6B3",
"!. c #BAB7B9",
"~. c #C29E81",
"^. c #C1908C",
"/. c #C49A96",
"(. c #C3A185",
"). c #C3A48D",
"_. c #CAA68B",
"`. c #CCA98E",
"'. c #C3A692",
"]. c #C5A995",
"[. c #CAAA94",
"{. c #C2A49D",
"}. c #C7AB9B",
"|. c #D2AD93",
" X c #C6B19D",
".X c #D4B39D",
"XX c #D6B196",
"oX c #C2ADA4",
"OX c #C2AFA9",
"+X c #CAABA5",
"@X c #C4B2A5",
"#X c #C4B3AB",
"$X c #CAB4AC",
"%X c #CBB9AC",
"&X c #C9B6A7",
"*X c #D2BAAA",
"=X c #CBB6B1",
"-X c #C5B9B3",
";X c #CCBBB4",
":X c #CDBDB9",
">X c #C2B8B5",
",X c #D2BCB4",
"<X c #D2BEBA",
"1X c #D5B9B5",
"2X c #CCC2BC",
"3X c #D4C2BB",
"4X c #DBC4BC",
"5X c #D5C2B5",
"6X c #CBC5C3",
"7X c #C9C7C5",
"8X c #D7C7C3",
"9X c #D6D2CF",
"0X c #E1D8CE",
"qX c #E9DDD3",
"wX c #E4DAD1",
"eX c #E2CAC6",
"rX c #ECE1D5",
"tX c #EEE4DA",
"yX c #F1E6DC",
"uX c #F2E7DB",
"iX c #E6E4E3",
"pX c #ECEBE3",
"aX c #EAE7E8",
"sX c #F5EBE5",
"dX c #F3F2ED",
"fX c #FCF5EE",
"gX c #EDEAF1",
"hX c #F0EEF2",
"jX c #EFFBF7",
"kX c #F5F5F5",
"lX c #F9F6F4",
"zX c #F5FAF6",
"xX c #FCFAF5",
"cX c #F5F6FA",
"vX c #F8F6F9",
"bX c #FCF6FD",
"nX c #F6F9FA",
"mX c #F5F9FB",
"MX c #F8F9FB",
"NX c #F9FAF9",
"BX c #FFFDF9",
"VX c #F9FAFD",
"CX c #FBFBFB",
"ZX c #E1DFE0",
/* pixels */
"kXvXvXvXvXvXvXvXvXvXvXvXvXvXvXvXvXcXcXcXMXVXVXVXkXcXvXcXVXVXvXkXNXNXkXkXMXMXzXkXvXkXkXvXmXmXmXkXMXNXNXNXNXlXkXkXNXlXkXkXNXCXCXMX",
"vXvXvXMXvXMXvXMXMXMXMXMXMXMXMXVXVXVXVXVXVXVXVXVXBXBXVXvXvXvXvXVXkXkXkXkXkXMXMXmXVXVXMXMXmXmXmXmXMXNXMXMXCXBXBXBXlXkXlXNXvXNXlXkX",
"MXMXMXMXMXMXMXMXvXvXvXvXvXvXvXvXMXMXMXmXmXmXkXkXkXkXkXvXvXkXkXkXMXmXMXmXvXkXvXMXmXmXMXmXcXcXcXmXmXzXvXkXkXkXkXkXvXMXVXNXMXzXvXzX",
"VXVXVXVXVXVXVXMXMXMXMXMXMXMXMXMXMXMXMXMXNXNXNXNXkXNXBXBXBXBXNXNXBXNXMXNXMXkXMXCXmXVXVXMXkXkXMXVXBXBXBXNXMXMXMXMXMXMXBXNXMXmXMXNX",
"kXkXkXkXkXkXkXkXkXkXkXkXkXkXkXkXkXkXkXfXlXlXlXlXxXlXfXdXpXdXdXlXkXkXkXkXkXdXkXkXkXkXkXkXkXkXkXMXkXkXkXkXkXkXkXkXkXkXkXkXkXdXkXkX",
"BXBXBXBXBXBXBXBXBXBXBXBXBXBXBXBXBXxXxXxXxXxXxXxXfXxXBXBXxXxXxXBXBXBXBXBXBXBXBXBXBXBXBXBXBXBXBXBXBXBXBXBXBXBXBXBXBXBXBXBXBXBXBXBX",
"tXtXtXtXyXuXuXuXyXyXyXyXyXyXyXyXuXtXtXrXrXrXrXqXrXrXtXrXwXwXwXqXqX0X0XtXsXsXtXyXsXyXyXyXsXsXyXqXqXqXtXtXyXyXyXtXyXtXrXtXtXtXqX0X",
"@.@.e.e.e.e.e.e.u.u.u.u.u.u.u.u.u.u.y.e.e.*.} } e.' M m t t v M v z b I e.u.u.c.V.d.u.u.V.c.e.@.m z b M K I ^ ^ ' ^ I ' | ' K M ",
"a.a.f.n.f.s.a.a.&.&.&.&.&.&.&.O.#.#.X.W S z c L K b s q 3 3 s M z 2 e g A R L +.}.p.&. X'..X[.)._ T Y T _ W W _ Q _ T H Y W H c ",
"s.s.n.n.(.(.n.s._._.(.(.(.(.n.s.O.H x c d 4 & * 7 2 * 1 1 1 7 s z 2 4 8 d x h C $.Q Q |.|.XXXX`..X[.).).(.s.a.a.;.a.-.=.=.;...H ",
"(.~.~.~.~.(.(.(.(.(.>.>.-.-.-.s.p.Z k k w ; - . < X X & & & & 1 r - < - 4 u 9 u j j j ;._.|.XX|.XX`.(.(.~.-.s.~.`.|.`._.`._.;.G ",
">.-.>.-.>.~.(.(.~.~.~.(.~.-.>.~...k 6 6 = - - . X .     . . o X * . . @ = 5 6 u , > i H :.|.`.|.`._.(.>.~.-.~.(._.`.`._.`.`.;.) ",
"~.s.s.s.~.~.(.(.(.(.(._.(.;.;.;...f = = X X - . @ o     O O + @ O o X & * = 5 8 > = u a Z `.;.`.|.XX|._.(.(.(._._._._._.`.`.~.%.",
"s.s.s.s.~.(.).).).n.(.(.;...G G a.x 5 5 2 2 * O + + + + + + $ $   @ + @ + o @ @ & - 4 > p ..H $.s._.`.).s.s.s.(.).).)._._.[.).(.",
"f.f.f.f.f.f.f.f.m.a.a.p...D x x L g 2 2 2 @ o   O + + $ $ + # # + % + + + O @   o * X 2 r z d N $.a.).).).).'.'.).'.'.).).).).).",
"d.s.f.f.f.f.d.a.o.W Q G N p 6 8 2 : * : *     + + 3 0 0 0 0 0 y 3 0 $ % 3 3 0 $ + q O z c 8 d c _ =.).).m.m.'.).'.[.[.'.).m.).'.",
"f.f.f.f.f.f.a.a.T c x C h w > 8 : : : @ @ 3 m b B ! <.i.t.<.<.{ 2.! B v z m 0 % 0 q 7 q s r 7 g D Q O.a.s.).).'.[.[.[.[.).).).).",
"f.f.f.f.).f.s.a.=.Z c h a u > 6 5 : : t K e.V.l.Z.I.$X;X=X$X$X#XI.P.P.Z.k.2.B z 3 q q q r 2 2 s d c A T O.s.[.[.[.[.[.[.'.).).).",
"a.a.f.f.m.).f.s.).G c a f u ; > 5 g F e.@X5X3X:X#X#X$X=X=X=X=X-X#X#XT.T.I.N.0.[ U b q 3 q 7 7 r f f h C Q a.[.[.[.[.[.[.'.).).).",
"s.s.f.f.).).~.f.a.Q C a u w ; w N +.&X5X5X%X=X;X;X=X$X$X=X=X=X$X2X-XI.P.P.K.Z.v.y.! z q 3 * * * u f h C Q ;.).[.[.[.[.[.[.'.'.).",
"f.f.f.m.).).).f.&.W D a 9 ; > x '.@X%X,X,X,X,X:X8X3X:X:X3X3X:X=X:X;X=X#X#XI.Z.l.<.8.q.L t @ @ - > u h C Q =.).[.[.[.[.[.[.[.[.[.",
"f.f.f.m.).).).m.p...Z p > - 6 W *X%X%X%X,X3X3X<X<X:X;X;X:X;X=X#X#X#X#X@XU.I.Z.c.0.t.y.E m 2 2 2 > f C G ..;.).[.[.[.[.[.[.[.[.[.",
"m.f.m.m.).'.).).p.T c 8 w 9 f #.}.%X5X5X,X;X;X;X<X<X<X:X<X:X:X;X:X=X#XU.U.I.I.I.t.' P b q 2 7 = e h A Y ..p.).[.[.[.[.[.[.[.[.[.",
"m.m.m.).'.'.).f.p.D p 8 h k h p.&X,X,X;X;X,X<X<X<X<X<X<X<X:X2X2X2X;X-XT.K.l.t.<.y.{ { J t 7 r 4 4 p c D Q #.f.'.[.[.[.[.[.[.[.[.",
"m.m.f.f.m.C.C.m.X.C f 9 = = d g.1X%X;X4X8X<X<X8X8X8X3X3X3X3X3X3X;XP.3.` ~ ~ ( { ~ ! P P c 7 t 8 5 9 e d x H =.[.}.}.}.[.[.[.].].",
"f.f.m.m.C.C.f.d.#.c 4 - = 9 c r.+XA.c.c.v.V.I.=X;X;X:X3X3X3X,X;Xl.k.i.k.Z.U.U.L.j.8.[ E c 7 t 8 8 u f g A o.'..X[.[.[.[.[.[.].].",
"f.f.m.C.'.m.d.p.D d 8 9 9 8 c r.C.c.c.l.l.c.Z.L.#X=X;X3X3X:X$XR.A.P.T.#X;X:X#XL.D.l.{ ^ b 7 r 7 = 4 4 5 c X.m.m.].].].].].].].].",
"a.f.f.m.C.m.a.p.D c g f p 8 d X.{.$X,X3X,X=X#XoXOX#X;X3X3X%XS.M.M.M.Z.P.N.t.t.j.t.8.{ ] b 7 7 5 5 5 4 e C #.'.'.].].].].].].].].",
"d.d.d.d.f.f.f.d.p.S s 8 p f d Y *X,X5X,X#XI.oX#XL.I.%X5X;X@XV.e.i.<.3.t.~ z v ! ^ [ { } b 2 2 2 e 8 f A X.f.[. X'.'.].].].].].].",
"d.a.r.a.d.d.f.d.X.A d p f f d L oXC.e.^ B B [ Z.l.Z.@X%X%XS.u.<.k.t.k.l.! v v ! ( { 8.e.M 3 2 4 4 e x _ d.m.C.'.'.].'.].].].'.'.",
"d.a.a.r.d.d.d.d.L N x c c d d L V.e.| P b z U c.l.V.R.&X&XS.u. .<.3.N.I.Z.t.j.Z.t.8.8.e.J t s s s N X.f.'.'.'.'.].].].].].'.'.'.",
"d.a.a.a.d.a.a.r.a.Y x c c c d S C.V.S.oXy.! e.%XV.S.@X%X&XS.u.} i.l.Z.P.I.I.K.v.v.t.} 8.P z M S N X.m.m.f.C.'.C.].].].].'.'.C.C.",
"r.r.r.r.r.r.r.r.r.] R J F S n c u.%X%X&X%X#X%XI.I.$X%X$X@XS.u.<.i.M.A.P.Y.I.P.K.v.l.0.{ ( { { ] #.m.].m.f.'.].m.'.'.'.'.'.'.).m.",
"r.r.r.r.r.r.r.r.9.@.+.X./ R S x |  X%X%X%X%X:X=X:X;X;X=X;X#XZ.e.l.S.#X#X#XT.U.U.K.Z.k.0.8.q.{ E #.s.'.m.f.m.m.f.'.'.'.'.'.m.m.m.",
"9.9.9.9.9.9.9.9.#.9.r.r.+./ L S '  X%X,X;X$X3X3X3X,X$X$X%X$XV.<.i.A.$X=X#XU.U.I.K.v.j.t.y.e.+./ p.f.'.].'.m.m.m.).).).).m.m.m.m.",
"#.@.@.@.#.#.#.#.@.@.+.+.+.+./ R |  X%X%X,X%X3X3X3X;XOXI.oXI.u.{ l.I.=X<X:X;X-X#XA.v.y.8.e.r.9.] f.f.).].'.f.f.'.m.m.m.m.m.m.m.m.",
"@.@.@.@.@.@.@.@.@.+.] ] #.a.9.] *.}.oX&X,X,X4X4X,X;X$XOXoXI.V.y.V.I.#X=X;X;X#XI.I.V.e.@.9.d.d.p.f.a.a.m.m.a.a.'.m.m.m.m.m.m.f.f.",
"+.+.+.+.+.+.+.+.+.+.X.+.d.C.d.X.C.*X&X*X4X5X4X<X,X<X<X,X%X%X$XOXL.I.I.I.#X#XI.Z.c.u.8.@.a.]..X.Xf.a.a.f.s.a.s.).f.f.m.m.f.f.f.f.",
"X.X.X.X.+.+.+.X.] X.X.X.r.d.9.W m.&XoX*X4X,X<X,X1X<X<X,X,X,X%X$XI.I.I.L.I.OXoXI.t.e.@.#.g.[..X*Xa.a.a.a.a.a.f.m.f.f.f.f.f.f.s.s.",
"X.X.X.X.X.X.X.X./ ] W R W X.] L W r.d.{.,X*X<X1X,X1X=X$X$X$XoXA.0.y.t.0.0.j.c.c.j.u.r.&.=.a.~.s.&.&.p.p.p.a.a.a.f.f.f.f.f.f.s.a.",
"] ] ] ] ] ] ] ] ] E E W ] / W W _ L W A.,X%XoXoXy.y.0.8.q.q.{ { [ ^ ! ( 8.j.c.c.u.8.r.d.p.=.p.=.=.=.=.=.p.p.a.p.a.a.a.a.a.a.a.a.",
"] ] ] ] ] ] ] / / / / W W E E E E E P ' C.4X1XA.A.A.b.b.b.c.c.c.c.j.t.y.l.v.c.l.y.e.y.d.&.=.;.=.#.#.#.#.&.&.&.&.a.a.a.a.a.a.p.p.",
"] ] ] / / / / / L W / E R E E R E E P L ^ y.I.$X$X$X#X#X$XOXoXoXoXL.Z.Z.v.l.t.<.8.e.d.d.#.&.p.=.&.#.#.#.&.&.&.=.p.p.p.p.p.p.=.=.",
"/ / / W W W W W R X.+.W R E E L K I E K M P c.;X$X$X$X$X$X#XoXS.oXL.v.l.j.t.<.[ [ { y.y.9.r.g.p.&.#.#.&.&.&.&.p.p.p.p.p.p.=.&.&.",
"W W W E E E E E ] r.a.] R R R L F I K M ' I.;XI.OX@X#X#X$X#XoXI.I.A.l.j.t.1.<.2.! ! <.t.8.9.r.#.#.o.o.#.#.O.#.&.=.=.p.p.=.&.&.&.",
"E E E E E E E E E X.+.W R R E E I F K | I.,X=XI.OXOX@X#X$X%X%X#XI.A.l.t.1.1.<.<.[ U ! 0.y.8.@.+.#.o.o.&.&.O.O.&.&.&.&.&.&.&.&.&.",
"E E E E R R R R J L R L L L E W E M ' &X5XZ.c.=X@X@XOX@X#X#X#X#XS.Z.j.t.1.1.1.1.2.B U 0.l.9.q.+.#.o.o.&.=.O.o.&.&.&.&.&.&.&.&.#.",
"E E R R R R R R E R R R L J L W F I u.%X,XS.Z.$X#X@XI.I.I.I.S.D.Z.Z.l.i.t.3.t.t.2.B B 0.v.j.<.q.X._ X.#.#.X.X.$.#.#.#.#.#.#.#.#.",
"E R R L L R R E S R E F S L R L J 8.4X,X@Xl.oX#X#X@X@XS.Z.M.M.Z.Z.l.i.t.t.h.h.3.2.,.l ~ Y.5.3.2.+.X...X.X...X.O.$.$.$.o.+.+.+.+.",
"R R R E E R L F X.L S L W W L S { A.eX4XOXt.oX@XOXoXoXI.S.S.D.Z.V.l.j.h.h.h.5.5.2.,.l ~ W.G.6.5.} _ _ X.X...$.O.O.$.$.o.+.+.+.@.",
"L K L L E E P L S M S I P S J ] I.3X8X3XA.{ oX$X$X+X{.{.}.}.{.A.V.c.j.h.k.k.h.5.1.,.v ,.W.J.J.z.<.] / ] X.X.X.$.$.$.o.o.o.o.+.+.",
"P P L K J K L P P ^ e.d.@.^ y.;X3X9X:X-Xk.[ oX$X1X$X+Xb.b././.{.A.Z.l.k.k.k.k.5.5.,.V ,.W.H.J.z.t.@.] W / X.X.X.X.X.o.X.X.X.] ] ",
"M K I ^ [ <.l.D.oXS.S.oX#X#X,X8X6X7XQ.>XN.k.=X,X1X1X+Xg.w.w.^./.D.Z.l.l.x.l.k.h.5.,.V 7.E.H.J.G.l.t.| E E W ] _ X.X.X.X.] ] ] ] ",
"[ <.l.K.I.$X:X8X:XI.Z.I.;X3X3X2X6X7X6X6XT.:X3X8X1X1X+Xg.%.%.w./.D.N.M.B.x.x.z.5.7.,.,.F.H.H.J.G.N.k.<.' I E ' ] ] ] ] ] ] ] ] ] ",
"-X-X-X;X;X-X=X>XT.N.N.#X2X;X2X9X7X7X9X>XJ.2X#X:X=X$X+Xb.g.g./.{.D.N.B.B.N.N.z.5.7.,.6.H.E.E.J.G.z.z.h.2.! ! ^ ^ ] ] ] ] ] ' ' ' ",
"Y.J.N.Y.Q.2X6X6XQ.5.5.>X6XQ.Q.9X7X!.7XJ.V J.5.Y.OXOXoXoX{.{.{.S.Z.N.B.B.N.B.z.5.7.7.J.W.E.H.G.F.6.z.z.1.` ` ^ ^ ' ' ' ' ' ^ ' ' ",
"z.J.Y.Q.6X7X6X:XQ.J.B.Q.6X>X>X6X!.!.W.z.7.,.5.Y.Y.Y.P.P.P.P.P.P.Z.N.N.B.B.z.z.6.6.z.E.W.E.H.G.G.7.7.7.3.3.1.<.<.[ ' ' ' ^ ^ ! I ",
"iXiXaXdXlXNXkXdXdXiXiXdXlXdXdXkXgXgXhXaXiXiXiXaXaXaXpXpXpXpXpXpXpXpXpXpXpXpXiXiXZXiXgXhXgXgXgXgXaXaXiXiXiXiXtXyXrXrXrXqXqXqXqXqX",
"BXMXMXMXCXBXMXkXBXMXlXMXCXMXvXMXvXvXMXBXBXBXBXNXNXzXzXzXzXzXzXzXBXBXBXBXBXBXBXBXMXNXBXCXVXVXCXBXCXBXBXBXBXBXBXBXBXBXBXBXBXBXBXBX",
"MXMXkXkXMXMXMXkXkXMXMXkXkXMXMXkXvXkXkXkXkXMXmXkXzXzXzXzXjXzXjXzXlXlXlXNXNXNXNXNXkXzXmXkXkXkXvXVXcXcXkXkXkXlXlXfXfXfXfXfXlXlXlXlX",
"MXMXMXMXMXBXMXMXkXBXBXMXkXMXBXMXBXBXMXNXkXmXMXmXmXmXmXmXmXmXmXmXNXNXMXNXMXMXNXMXMXMXNXMXMXMXVXCXVXMXVXMXMXBXBXBXlXlXBXBXNXNXMXMX",
"kXkXkXkXkXkXkXkXkXMXMXkXkXkXkXkXkXzXMXMXzXkXkXzXkXvXvXvXvXvXcXcXmXvXvXvXkXkXkXkXkXvXzXMXkXkXkXkXvXmXvXmXkXkXlXlXlXkXkXkXkXkXcXmX",
"MXMXMXMXMXMXMXMXBXMXMXMXMXMXkXNXkXlXzXNXNXMXMXMXVXVXCXbXbXbXbXbXVXMXMXMXMXmXvXvXMXMXMXNXMXNXkXkXvXmXvXmXkXkXlXlXNXNXNXvXmXmXmXmX",
"MXMXkXkXkXkXMXMXMXkXkXMXBXMXkXMXNXlXkXkXlXzXMXMXMXMXbXbXbXbXbXbXcXvXvXMXMXMXmXmXMXMXNXkXNXNXlXkXvXMXvXmXkXkXlXlXNXNXmXmXvXmXmXjX"
};
